# xmcd CD database file
#
# Track frame offsets:
#	150
#	14157
#	27907
#	41231
#	54456
#	68661
#	80170
#	96125
#	110102
#	123887
#	138977
#	153233
#	165078
#	180597
#	194820
#	208107
#	222281
#	235639
#	249906
#	264017
#
# Disc length: 3720 seconds
#
# Revision: 0
# Processed by: cddbd v1.5.2PL0 Copyright (c) Steve Scherf et al.
# Submitted via: CDex 1.70beta2
#
DISCID=140e8614
DTITLE=Louis Armstrong - Satchmo
DYEAR=2002
DGENRE=Jazz
TTITLE0=C'est Si Bon
TTITLE1=Do You Know What It Means To Miss New Orleans
TTITLE2=Blueberry Hill
TTITLE3=You Won't Be Satisfied
TTITLE4=That Lucky Old Sun
TTITLE5=Gone Fishin'
TTITLE6=Sugar
TTITLE7=Dream A Little Dream Of Me
TTITLE8=I Wonder
TTITLE9=My Sweet Hunk O-Trash
TTITLE10=Thankful
TTITLE11=Our Monday Date
TTITLE12=I'm Confessin'
TTITLE13=On The Sunny Side Of The Street
TTITLE14=So Little Time
TTITLE15=I Double Dare You
TTITLE16=When The Saints Go Marching In
TTITLE17=Save A Pretty Mama
TTITLE18=You Rascal You
TTITLE19=When It's Sleepy Time Down South
EXTD=YEAR: 2002
EXTT0=
EXTT1=
EXTT2=
EXTT3=
EXTT4=
EXTT5=
EXTT6=
EXTT7=
EXTT8=
EXTT9=
EXTT10=
EXTT11=
EXTT12=
EXTT13=
EXTT14=
EXTT15=
EXTT16=
EXTT17=
EXTT18=
EXTT19=
PLAYORDER=
